<svg width="101" height="101" viewBox="0 0 101 101" fill="none" xmlns="http://www.w3.org/2000/svg">
<path d="M72.5938 3.15625C70.8492 3.15625 69.4375 4.56947 69.4375 6.3125V12.625H31.5625V6.3125C31.5625 4.56947 30.1508 3.15625 28.4062 3.15625C26.6617 3.15625 25.25 4.56947 25.25 6.3125V28.4062C25.25 37.9064 30.529 46.191 38.3031 50.5C30.529 54.809 25.25 63.0936 25.25 72.5938V94.6875C25.25 96.4305 26.6617 97.8438 28.4062 97.8438C30.1508 97.8438 31.5625 96.4305 31.5625 94.6875V88.375H69.4375V94.6875C69.4375 96.4305 70.8492 97.8438 72.5938 97.8438C74.3383 97.8438 75.75 96.4305 75.75 94.6875V72.5938C75.75 63.0936 70.471 54.809 62.6969 50.5C70.471 46.191 75.75 37.9064 75.75 28.4062V6.3125C75.75 4.56947 74.3383 3.15625 72.5938 3.15625ZM69.4375 18.9375V25.25H31.5625V18.9375H69.4375ZM66.8104 37.9817C66.6317 37.9503 66.4691 37.875 66.2812 37.875H34.7188C34.5309 37.875 34.3683 37.9505 34.1896 37.9819C33.0424 36.0357 32.2373 33.8715 31.8476 31.5625H69.1524C68.7627 33.8715 67.9576 36.0355 66.8104 37.9817ZM66.2812 63.125C66.4691 63.125 66.6317 63.0497 66.8104 63.0183C67.9576 64.9645 68.7627 67.1285 69.1524 69.4375H31.8476C32.2373 67.1285 33.0424 64.9643 34.1896 63.0181C34.3683 63.0495 34.5309 63.125 34.7188 63.125H66.2812ZM31.5625 82.0625V75.75H69.4375V82.0625H31.5625ZM60.9458 56.8125H40.0542C43.0511 54.8223 46.6406 53.6562 50.5 53.6562C54.3594 53.6562 57.9489 54.8223 60.9458 56.8125ZM40.0542 44.1875H60.9458C57.9489 46.1777 54.3594 47.3438 50.5 47.3438C46.6406 47.3438 43.0511 46.1777 40.0542 44.1875Z" fill="#9BD9D9"/>
</svg>
