<svg width="100" height="101" viewBox="0 0 100 101" fill="none" xmlns="http://www.w3.org/2000/svg">
<path d="M75.6357 49.9965L72.7266 47.5988C74.8461 45.0423 76.011 41.8286 76.022 38.5079C76.0223 35.6449 75.1447 32.8506 73.5077 30.5018C71.8706 28.153 69.5528 26.3625 66.8667 25.3718C64.1806 24.3811 61.2553 24.2377 58.4851 24.961C55.715 25.6843 53.2332 27.2395 51.3743 29.417L49.9993 31.1783L48.5789 29.4738C46.72 27.2963 44.2382 25.7411 41.468 25.0178C38.6979 24.2945 35.7726 24.4379 33.0865 25.4286C30.4004 26.4193 28.0826 28.2098 26.4455 30.5586C24.8085 32.9074 23.9309 35.7017 23.9311 38.5647C23.9422 41.8855 25.1071 45.0991 27.2266 47.6556L24.3629 50.0533C21.4073 46.606 19.8873 42.1558 20.1163 37.6206C20.3454 33.0855 22.3061 28.8111 25.5941 25.6791C28.882 22.5471 33.2465 20.7962 37.7875 20.7876C42.3284 20.779 46.6995 22.5133 49.9993 25.6329C53.3189 22.6507 57.6406 21.0292 62.1026 21.0918C66.5646 21.1543 70.839 22.8963 74.0737 25.9704C77.3084 29.0445 79.2656 33.2249 79.5551 37.6779C79.8446 42.1309 78.4451 46.5295 75.6357 49.9965Z" fill="#9BD9D9"/>
<path d="M48.4327 64.7463L42.2509 51.36L39.9782 56.2122H20.2168V52.485H37.6372L42.2395 42.4509L48.0122 54.9509L55.5122 33.894L62.3986 52.5304H79.785V56.2577H59.7963L55.5918 44.8145L48.4327 64.7463Z" fill="#9BD9D9"/>
<path d="M52.7161 80.4168H47.2843L31.8184 62.0986L34.6593 59.7236L49.0002 76.7691H51.0002L65.3184 59.7236L68.182 62.0986L52.7161 80.4168Z" fill="#9BD9D9"/>
</svg>
