<svg width="713" height="682" viewBox="0 0 713 682" fill="none" xmlns="http://www.w3.org/2000/svg">
<path d="M79.5044 242.117C44.3209 302.617 61.244 360.957 74.1035 382.564C84.134 407.258 88.6093 474.395 26.2664 545.39C-36.0765 616.385 27.038 650.082 66.388 658.056C156.405 663.201 359.585 675.033 452.173 681.207C544.761 687.38 618.832 655.998 644.294 639.536C775.769 569.775 689.045 510.664 627.319 483.655C586.426 459.733 607.259 388.995 627.319 365.587L652.781 321.601C685.496 256.162 653.553 198.645 633.492 178.067C611.631 174.723 559.73 156.923 527.015 112.473C494.301 68.0242 443.943 27.5879 422.853 12.9259C275.483 -35.6904 256.194 65.4006 241.534 108.615C229.807 143.187 195.497 169.836 179.809 178.839C164.995 203.533 106.767 231.313 79.5044 242.117Z" fill="url(#paint0_linear_243_228)"/>
<path d="M325.121 103.681C325.121 103.681 262.246 154.259 315.157 244.853C368.064 335.452 340.199 233.254 340.199 233.254C340.199 233.254 366.397 117.78 325.121 103.681Z" fill="#361111"/>
<path d="M352.873 117.03C352.873 117.03 334.529 121.072 365.118 121.114C365.118 121.114 414.274 125.072 406.311 78.3428C401.305 48.9678 391.686 82.2803 391.686 82.2803L352.873 117.03Z" fill="#1B0C0D"/>
<path d="M348.993 136.472C349.404 136.446 355.16 136.483 355.571 136.472C357.253 136.431 351.113 135.248 352.785 135.321C355.701 125.457 354.175 111.915 353.967 110.743C353.738 109.451 350.566 100.717 350.566 100.717L348.066 74.6025L327.993 98.1598C327.993 98.1598 309.003 126.603 324.488 168.181C324.488 168.181 345.852 170.488 348.993 136.472Z" fill="#361111"/>
<path d="M345.725 618.645L349.126 619.671C349.126 619.671 363.965 618.874 368.001 633.743C368.001 633.743 370.449 638.738 366.022 638.962C361.6 639.191 337.22 641.118 323.835 635.332C323.835 635.332 320.84 632.983 324.663 629.051C328.486 625.118 345.725 618.645 345.725 618.645Z" fill="#FBC1A1"/>
<path d="M405.357 476.462L419.159 466.848C419.159 466.848 437.419 495.056 436.633 534.728C435.846 574.395 434.648 597.978 434.648 597.978C434.648 597.978 426.534 608.775 420.747 597.426C416.492 589.077 408.096 543.592 406.539 537.754C404.976 531.915 392.653 498.973 396.575 473.587L405.357 476.462Z" fill="#F57A69"/>
<path d="M426.472 283.082C426.472 283.082 456.727 362.577 419.295 462.01C419.295 462.01 419.055 468.02 397.941 463.483C397.941 463.483 370.342 355.405 388.941 314.983C407.539 274.567 426.472 283.082 426.472 283.082Z" fill="#F57A69"/>
<path d="M416.897 457.707C416.897 457.707 422.673 464.801 419.121 483.483C417.043 494.431 412.256 497.213 404.381 495.728C396.512 494.239 394.038 460.614 400.371 456.687C406.699 452.765 416.897 457.707 416.897 457.707Z" fill="#F57A69"/>
<path d="M390.264 336.067C390.264 336.067 425.28 316.504 427.624 282.333C427.624 282.333 373.645 265.697 324.488 284.838C324.488 284.838 351.249 350.9 390.264 336.067Z" fill="#F8A491"/>
<path d="M327.159 285.592L324.487 284.837C324.487 284.837 291.362 359.071 378.701 465.55C378.701 465.55 400.008 468.821 405.618 459.488C405.618 459.488 408.706 428.8 397.128 378.504C385.56 328.207 370.764 285.853 327.159 285.592Z" fill="#F8A491"/>
<path d="M404.725 455.806C404.725 455.806 408.777 462.525 402.693 481.009C396.621 499.499 379.99 492.9 378.699 482.53C377.407 472.155 377.584 460.879 385.011 455.796C392.433 450.712 404.725 455.806 404.725 455.806Z" fill="#F8A491"/>
<path d="M398.471 471.838L401.992 482.931C401.992 482.931 356.919 564.947 346.044 603.947C346.044 603.947 338.112 605.749 333.539 600.364C333.539 600.364 341.31 545.921 345.445 517.942C349.581 489.963 377.674 462.53 377.674 462.53L398.471 471.838Z" fill="#F8A491"/>
<path d="M337.461 571.223L337.117 575.342C337.117 575.342 345.013 583.087 354.112 581.066L356.966 575.311L337.461 571.223Z" fill="#F57A69"/>
<path d="M346.747 601.265C346.747 601.265 342.627 613.473 348.523 619.671C348.523 619.671 338.658 618.53 332.075 633.291L324.825 631.697C324.825 631.697 322.033 631.759 327.132 621.197C331.424 612.327 334.57 593.671 334.57 593.671L346.747 601.265Z" fill="#F8A491"/>
<path d="M434.884 592.769C434.884 592.769 435.514 618.217 439.254 626.55C439.254 626.55 428.363 617.774 415.66 622.535C415.66 622.535 421.421 608.514 417.296 586.728C417.296 586.728 431.65 598.451 434.884 592.769Z" fill="#F57A69"/>
<path d="M406.289 637.082C406.289 637.082 407.57 622.181 421.034 619.769C432.617 617.691 441.982 625.431 444.242 635.957C445.372 641.197 407.831 639.665 406.289 637.082Z" fill="#FBC1A1"/>
<path d="M430.991 283.926C430.991 283.926 446.673 356.947 458.491 563.051C458.491 563.051 439.855 571.499 428.751 571.676C428.751 571.676 390.434 588.931 347.793 576.671C347.793 576.671 330.553 569.712 306.506 561.077C306.506 561.077 304.97 480.066 305.522 427.212C306.215 360.353 310.225 315.775 324.486 284.837C324.486 284.837 373.376 296.639 430.991 283.926Z" fill="#321728"/>
<path d="M340.855 289.577C340.855 289.577 400.423 329.863 432.22 300.134L428.48 290.832C428.48 290.832 357.413 285.144 340.855 289.577Z" fill="#121428"/>
<path d="M405.98 172.879C405.98 172.879 406.09 172.744 406.288 172.504C407.454 171.103 411.939 166.379 418.324 167.562C418.324 167.562 415.105 154.905 410.939 150.937C406.402 146.619 400.71 145.202 398.184 144.546" fill="#E9E9E9"/>
<path d="M407.379 213.988C407.993 211.165 412.004 186.004 406.769 164.035C405.712 162.874 404.624 161.749 403.707 160.389C402.452 158.53 401.582 156.389 400.78 154.311C402.368 158.431 399.009 150.098 399.78 151.926C399.546 151.426 399.358 150.921 399.197 150.389C398.936 148.978 398.624 147.52 398.582 146.082C398.462 145.587 398.4 145.092 398.363 144.598L398.358 144.592L392.91 143.098L333.431 145.191L327.993 144.66C327.993 144.66 313.926 164.717 320.275 191.962C326.629 219.212 331.842 225.572 333.431 241.462C335.025 257.363 324.488 284.837 324.488 284.837C324.488 284.837 372.671 299.592 416.223 275.978C416.223 275.978 402.092 238.322 407.379 213.988Z" fill="#F1511B"/>
<path d="M389.695 142.239C389.695 142.239 397.617 140.015 400.482 143.098C400.482 143.098 409.81 143.879 412.935 150.015C416.06 156.155 426.643 188.395 426.945 197.322C426.945 197.322 424.112 200.957 409.805 202.926C395.492 204.895 400.034 158.713 400.034 158.713C400.034 158.713 398.56 145.713 389.695 142.239Z" fill="#A4311F"/>
<path d="M392.179 206.499C392.179 206.499 404.971 211.743 413.356 206.27C421.736 200.79 424.455 190.691 416.221 178.264C414.877 176.238 410.57 169.827 406.924 164.186C401.684 156.092 394.658 145.816 394.658 145.816C394.658 145.816 372.038 192.368 392.179 206.499Z" fill="#F1511B"/>
<path d="M349.607 160.634C349.607 160.634 319.691 201.207 352.691 212.592C352.691 212.592 373.784 220.644 378.284 194.076C381.607 174.467 349.607 160.634 349.607 160.634Z" fill="#F1511B"/>
<path d="M412.915 207.191C413.15 207.087 413.389 206.983 413.624 206.863C423.717 201.837 420.832 188.832 420.832 188.832C416.853 204.629 391.509 192.447 384.848 193.139C378.191 193.827 370.868 207.999 353.061 201.837C342.212 198.087 340.759 176.681 340.759 176.681L338.546 179.999C334.764 173.186 331.889 162.738 331.889 162.738C333.702 171.671 331.889 181.207 331.889 181.207C331.889 181.207 334.431 252.4 331.374 261.842C315.863 309.749 310.691 325.639 310.691 325.639C377.301 371.04 444.702 337.15 444.702 337.15L443.025 287.025L357.853 231.129C357.853 231.129 378.014 204.368 388.447 204.368C388.879 204.368 393.363 207.202 399.348 208.415C403.697 206.988 408.379 207.145 412.915 207.191Z" fill="#A4311F"/>
<path d="M407.377 203.774C407.377 203.774 440.471 226.524 446.023 260.748C453.284 305.483 398.185 341.608 353.393 289.233C353.393 289.233 333.206 237.608 374.034 206.722C374.034 206.722 384.919 198.097 407.377 203.774Z" fill="#F1511B"/>
<path d="M358.961 262.218H411.878L425.19 266.593L430.643 261.843H433.513L436.148 266.593L435.284 272.374L434.706 276.353C434.706 276.353 432.263 275.666 432.305 273.739C432.336 271.806 430.216 276.801 430.195 279.41C430.18 282.025 426.878 274.931 426.883 274.39C426.893 273.848 421.654 278.166 421.211 277.483C420.763 276.801 421.393 273.395 421.19 272.827C420.992 272.259 408.857 267.056 408.857 267.056H360.201L358.961 262.218Z" fill="#A4311F"/>
<path d="M421.189 304.4C403.84 308.52 375.913 297.025 365.934 279.296C360.944 270.421 360.064 259.858 360.725 249.838C361.413 239.384 366.918 229.52 374.382 221.77C384.465 211.296 398.553 206.332 412.913 207.192C410.71 205.348 408.324 202.426 408.324 202.426C385.871 196.749 375.173 204.02 375.173 204.02C315.001 229.353 347.132 298.869 347.132 298.869C380.246 320.431 447.715 326.166 437.434 296.858C432.83 301.39 428.465 302.666 421.189 304.4Z" fill="#A4311F"/>
<path d="M348.404 102.426C348.404 102.426 351.049 124.759 348.023 134.749C348.023 134.749 346.737 141.858 327.992 144.66C327.992 144.66 358.258 177.608 378.523 176.4C398.789 175.181 392.909 143.098 392.909 143.098C392.909 143.098 377.893 139.671 376.378 134.514C374.862 129.374 373.43 115.092 373.43 115.092L348.404 102.426Z" fill="#F57A69"/>
<path d="M355.165 115.785C355.165 115.785 379.904 129.993 384.576 127.66C384.576 127.66 393.587 117.233 395.493 111.894C397.399 106.556 399.607 87.7224 398.352 78.8422C397.191 70.587 394.003 62.5297 388.561 58.1391C380.316 51.4985 362.373 45.7432 347.373 60.0193C347.373 60.0193 330.644 76.4412 342.035 98.6599C342.035 98.6599 350.363 103.78 351.378 107.863C352.404 111.957 352.972 113.441 355.165 115.785Z" fill="#F8A491"/>
<path d="M396.122 97.7645C396.122 97.7645 397.299 97.9781 397.216 96.3635C397.128 94.7437 390.753 95.1552 389.039 99.0354C389.039 99.0354 392.971 96.0979 396.122 97.7645Z" fill="#F57A69"/>
<path d="M352.618 106.509C352.618 106.509 346.852 100.701 343.977 104.431C343.977 104.431 343.435 103.649 342.42 102.134C341.399 100.623 344.93 95.2275 344.93 95.2275L359.227 80.4202C359.227 80.4202 367.565 76.1025 368.399 75.1234C369.227 74.139 371.399 71.1807 371.925 69.9775C372.456 68.764 377.482 71.8421 377.482 71.8421L366.211 55.1182L382.925 64.1963L397.216 61.2692L401.68 70.2744C401.68 70.2744 406.493 75.6286 399.529 72.3057C399.529 72.3057 378.519 74.5973 354.227 114.707C349.055 123.238 350.565 100.712 350.565 100.712C350.565 100.712 351.878 102.425 352.618 106.509Z" fill="#F57A69"/>
<path d="M405.325 71.5299C398.185 41.9414 372.299 43.5768 363.758 44.2851C357.424 44.8112 357.133 46.6341 357.133 46.6341C329.414 48.0716 323.195 84.2799 327.992 102.426C329.919 109.733 328.929 136.848 354.575 94.1914C368.992 69.082 396.445 72.9622 396.445 72.9622C396.445 72.9622 398.117 99.7643 405.06 96.6393C408.096 95.2695 407.372 80.0403 405.325 71.5299Z" fill="#361111"/>
<path d="M350.103 97.2178C350.103 97.2178 347.837 88.5147 342.968 92.3115C340.129 94.5199 342.228 103.608 345.884 106.838C349.551 110.056 352.655 108.817 352.655 108.817C352.655 108.817 353.973 109.348 350.103 97.2178Z" fill="#F57A69"/>
<path d="M370.053 95.4675C370.053 95.4675 377.782 94.8112 379.766 99.6394C379.766 99.6394 374.886 95.306 367.626 99.0352C360.376 102.759 363.496 96.3998 363.496 96.3998L370.053 95.4675Z" fill="#F57A69"/>
<path d="M327.993 144.66C327.993 144.66 303.263 137.697 305.696 174.983C307.508 202.89 320.06 187.666 327.597 178.619C335.133 169.577 334.368 160.9 327.993 144.66Z" fill="#F1511B"/>
<path d="M306.434 179.837C306.434 179.837 307.402 208.238 323.069 249.405C323.069 249.405 338.538 246.608 344.163 242.603C344.163 242.603 340.923 241.702 339.777 222.467C338.699 204.296 332.1 179.905 332.1 179.905C332.1 179.905 319.267 168.796 306.434 179.837Z" fill="#F1511B"/>
<path d="M320.504 253.826L315.16 225.79C315.16 225.79 322.285 226.603 342.509 233.066C357.514 237.853 395.592 253.071 413.389 254.634C413.389 254.634 416.082 258.436 411.014 263.894C411.014 263.894 324.145 266.03 320.504 253.826Z" fill="#F1511B"/>
<path d="M412.934 256.024L424.111 255.931C426.121 256.493 428.715 257.457 431.793 257.837C434.611 258.191 432.897 258.061 436.46 258.118C436.46 258.118 437.803 260.899 431.793 260.748C429.257 260.681 422.855 260.3 422.595 260.342C422.34 260.379 412.934 256.024 412.934 256.024Z" fill="#F57A69"/>
<path d="M427.643 270.462L428.732 273.603C428.732 273.603 425.117 276.197 424.294 277.421C423.471 278.645 423.987 279.108 424.195 279.181C424.404 279.249 430.675 275.098 430.675 275.098L430.992 270.613L428.602 268.16L427.643 270.462Z" fill="#F8A491"/>
<path d="M428.48 268.821L432.512 272.368L433.152 276.514C433.152 276.514 432.241 278.608 432.934 280.446C432.934 280.446 433.152 280.931 433.736 281.071L435.392 277.972L435.965 271.488L430.991 263.759L428.48 268.821Z" fill="#F8A491"/>
<path d="M430.043 258.27C430.043 258.27 434.96 260.889 436.866 261.389C436.866 261.389 438.21 264.676 439.559 266.322C439.559 266.322 439.454 269.681 439.876 270.493C439.876 270.493 439.027 272.02 438.277 269.941C437.522 267.868 437.73 266.9 437.73 266.9C437.73 266.9 436.632 265.275 436.147 264.655C435.663 264.035 429.309 262.285 429.309 262.285L430.043 258.27Z" fill="#F8A491"/>
<path d="M429.82 260.395C429.82 260.395 434.346 264.415 436.602 265.275C436.602 265.275 437.414 270.254 438.852 272.415C438.852 272.415 438.945 275.264 438.945 276.79C438.945 276.79 437.893 277.546 437.32 275.941C436.414 273.426 436.695 272.983 436.695 272.983C436.695 272.983 434.497 268.457 433.987 267.645C433.482 266.832 428.242 264.572 428.242 264.572L429.82 260.395Z" fill="#F8A491"/>
<path d="M413.233 254.655C413.233 254.655 425.832 257.499 430.045 258.27C430.045 258.27 434.431 266.858 428.186 271.785C428.186 271.785 426.436 270.473 423.415 269.629C420.238 268.733 415.618 269.504 410.868 265.437C407.483 262.53 413.233 254.655 413.233 254.655Z" fill="#F8A491"/>
<path d="M396.977 97.0094C396.263 97.1396 395.581 97.2542 394.888 96.9782L394.716 96.8949C393.794 96.6761 389.773 96.098 389.039 99.0355C389.039 99.0355 391.81 96.6396 395.904 98.3428C395.904 98.3428 397.445 97.473 397.841 96.6396C397.591 96.8167 397.31 96.9521 396.977 97.0094Z" fill="#1B0C0D"/>
<path d="M390.387 92.2543C390.387 92.2543 396.272 87.3532 399.189 89.2855C399.189 89.2855 398.517 87.7543 397.829 87.3845C397.147 87.0199 393.007 87.7438 390.387 92.2543Z" fill="#1B0C0D"/>
<path d="M389.1 115.025C389.1 115.025 390.017 115.551 389.257 116.025C388.496 116.494 384.335 117.265 380.855 114.062C380.855 114.062 384.72 114.864 386.257 115.249C387.793 115.634 388.158 114.983 389.1 115.025Z" fill="#F4737A"/>
<path d="M388.855 113.957C387.876 114.436 386.522 114.473 385.491 114.483C384.704 114.483 383.939 114.374 383.178 114.217C382.454 114.207 381.678 114.16 380.855 114.061C380.855 114.061 386.142 116.645 389.251 115.191L389.293 114.827L389.355 114.02C389.017 114.02 389.23 114.025 388.855 113.957Z" fill="white"/>
<path d="M390.225 113.358H390.189C388.85 114.124 388.288 113.509 386.767 113.577C385.397 113.634 381.272 114.155 380.855 114.062C386.809 115.259 389.329 114.416 389.329 114.416C390.241 114.369 390.569 113.395 390.225 113.358Z" fill="#F4737A"/>
<path d="M387.855 101.78C387.855 101.78 389.793 107.124 390.475 108.478C390.475 108.478 390.522 109.733 389.465 111.108C389.465 111.108 390.892 109.869 391.496 109.056C392.105 108.244 391.085 107.478 390.585 106.702C390.095 105.931 387.913 102.421 387.855 101.78Z" fill="#F57A69"/>
<path d="M370.921 96.8734C370.207 97.0818 369.243 97.4099 369.02 97.4932C367.52 98.0349 367.03 98.4359 365.811 98.3734C365.217 98.3422 364.655 98.2328 364.113 98.0661C365.098 99.2432 366.697 99.6807 366.697 99.6807C375.592 95.6807 379.743 99.6807 379.743 99.6807C379.035 96.3995 373.889 96.3682 370.921 96.8734Z" fill="#1B0C0D"/>
<path d="M379.098 92.2748C379.098 92.2748 370.155 86.28 362.832 90.5561C362.832 90.5561 364.186 88.2488 366.061 87.6863C367.931 87.1134 374.056 86.2644 379.098 92.2748Z" fill="#1B0C0D"/>
<path d="M361.848 442.9C361.848 442.9 399.717 401.457 409.009 348.077C409.009 348.077 416.676 435.004 361.848 442.9Z" fill="#121428"/>
<path d="M406.914 120.738L405.107 114.488L399.466 113.676L396.445 116.655C396.445 116.655 397.477 117.113 398.508 116.691C399.544 116.28 400.263 115.483 400.263 115.483L403.518 116.504L404.461 121.9L406.914 120.738Z" fill="#F57A69"/>
<path d="M401.857 122.489C400.971 122.879 400.951 116.03 400.951 116.03L395.711 112.848L394.591 112.15C394.591 112.15 394.565 112.041 394.737 111.645C394.909 111.259 398.289 112.249 398.289 112.249L402.935 114.869L404.794 122.358L401.857 122.489Z" fill="#F57A69"/>
<path d="M398.598 121.852C397.681 122.191 398.03 115.358 398.03 115.358L392.962 111.899L391.879 111.139C391.879 111.139 391.869 111.03 392.056 110.655C392.238 110.274 395.572 111.436 395.572 111.436L400.072 114.3L401.686 121.899L398.598 121.852Z" fill="#F8A491"/>
<path d="M397.835 123.342C397.835 123.342 396.07 121.275 394.757 118.999C394.757 118.999 393.007 117.91 392.231 118.118C391.45 118.327 393.132 120.452 393.622 121.691C394.971 125.103 394.262 127.472 394.413 128.311C395.564 134.42 400.507 136.972 400.507 136.972L397.835 123.342Z" fill="#F57A69"/>
<path d="M402.617 137.306C403.695 141.243 415.471 166.264 434.081 188.264C446.534 202.978 438.883 232.524 438.883 232.524C437.883 234.144 432.763 233.691 432.763 233.691C425.924 227.587 415.841 210.014 411.341 192.134C405.648 169.545 392.055 140.441 392.055 140.441L394.148 139.728L402.617 137.306Z" fill="#EF5F28"/>
<path d="M351.046 106.441C351.046 107.353 350.311 108.082 349.405 108.082C348.504 108.082 347.77 107.353 347.77 106.441C347.77 105.54 348.504 104.806 349.405 104.806C350.311 104.806 351.046 105.54 351.046 106.441Z" fill="white"/>
<path d="M327.066 97.832C327.066 97.832 330.056 116.264 349.405 124.421C349.405 124.421 349.259 134.999 346.483 137.306C343.712 139.608 311.238 114.421 327.066 97.832Z" fill="white"/>
<path d="M328.305 102.238C328.2 103.457 328.154 104.686 328.258 105.926C328.555 109.801 329.315 113.868 330.68 117.52C333.117 124.035 338.258 129.889 342.101 135.775L342.138 135.827C344.315 137.165 345.95 137.743 346.482 137.306C349.258 134.999 349.404 124.421 349.404 124.421C336.008 118.775 330.461 108.207 328.305 102.238Z" fill="#D3D2D2"/>
<path d="M392.056 140.441C389.561 135.493 395.957 125.462 395.957 125.462L394.566 115.697L390.853 116.056L390.363 114.488L395.78 113.973L399.03 121.655L406.936 120.645L402.618 137.306C402.618 137.306 394.551 145.405 392.056 140.441Z" fill="#F8A491"/>
<path d="M105.747 80.8369C105.747 80.8369 88.1632 91.3786 95.1632 114.243C95.1632 114.243 87.0434 115.561 86.5121 109.972C86.5121 109.972 85.2309 113.795 85.6684 117.061C85.6684 117.061 76.6111 123.207 70.7882 113.972C70.7882 113.972 67.5642 120.379 73.4444 127.103C73.4444 127.103 67.9705 126.571 66.3767 121.03C66.3767 121.03 58.2205 136.113 72.1267 150.285C72.1267 150.285 66.9444 153.123 67.9705 159.743C67.9705 159.743 69.9809 157.092 71.4809 156.728C71.4809 156.728 72.6476 199.998 108.439 208.743C131.247 214.311 114.194 124.368 114.194 124.368C114.194 124.368 119.2 109.915 119.33 109.452C119.465 108.993 119.997 92.5609 118.595 91.6598C117.2 90.7588 105.747 80.8369 105.747 80.8369Z" fill="#171928"/>
<path d="M171.868 69.8164C171.868 69.8164 186.04 89.9622 173.056 106.155C173.056 106.155 180.952 117.743 176.707 130.978C176.707 130.978 176.707 141.275 189.717 137.941C189.717 137.941 192.149 142.66 186.769 147.342C181.399 152.02 148.613 144.743 147.764 144.15C146.915 143.54 132.103 133.577 134.368 124.712C136.634 115.842 146.655 95.3372 147.764 93.6549C148.879 91.9727 171.868 69.8164 171.868 69.8164Z" fill="#171928"/>
<path d="M121.567 615.046L124.963 616.072C124.963 616.072 139.801 615.28 143.838 630.15C143.838 630.15 146.286 635.145 141.858 635.369C137.442 635.603 113.056 637.525 99.671 631.739C99.671 631.739 96.6814 629.395 100.504 625.457C104.322 621.525 121.567 615.046 121.567 615.046Z" fill="white"/>
<path d="M181.191 472.868L194.998 463.254C194.998 463.254 213.259 491.462 212.467 531.134C211.675 570.806 210.483 594.379 210.483 594.379C210.483 594.379 202.368 605.171 196.587 593.832C192.326 585.483 183.936 539.993 182.373 534.16C180.811 528.322 168.493 495.379 172.41 469.999L181.191 472.868Z" fill="#D3D2D2"/>
<path d="M202.304 279.489C202.304 279.489 232.559 358.989 195.132 458.421C195.132 458.421 194.892 464.426 173.773 459.89C173.773 459.89 146.174 351.806 164.773 311.39C183.377 270.973 202.304 279.489 202.304 279.489Z" fill="#D3D2D2"/>
<path d="M192.726 454.119C192.726 454.119 198.502 461.213 194.96 479.89C192.882 490.843 188.096 493.619 180.221 492.129C172.351 490.645 169.872 457.02 176.205 453.093C182.538 449.171 192.726 454.119 192.726 454.119Z" fill="#D3D2D2"/>
<path d="M166.095 332.473C166.095 332.473 201.116 312.915 203.46 278.738C203.46 278.738 149.48 262.103 100.324 281.238C100.324 281.238 127.085 347.306 166.095 332.473Z" fill="#F8A491"/>
<path d="M102.992 281.999L100.325 281.238C100.325 281.238 67.1949 355.478 154.539 461.957C154.539 461.957 175.841 465.228 181.455 455.9C181.455 455.9 184.539 425.207 172.96 374.91C161.393 324.613 146.601 282.259 102.992 281.999Z" fill="white"/>
<path d="M180.565 452.217C180.565 452.217 184.617 458.936 178.534 477.42C172.456 495.91 155.831 489.311 154.534 478.931C153.242 468.566 153.424 457.285 160.846 452.207C168.263 447.123 180.565 452.217 180.565 452.217Z" fill="white"/>
<path d="M144.551 449.442L150.91 457.457C150.91 457.457 173.993 457.416 181.77 449.947L181.889 443.687L144.551 449.442Z" fill="#D3D2D2"/>
<path d="M174.303 468.244L177.824 479.338C177.824 479.338 132.757 561.348 121.876 600.358C121.876 600.358 113.949 602.155 109.371 596.77C109.371 596.77 117.142 542.327 121.277 514.353C125.418 486.364 153.512 458.937 153.512 458.937L174.303 468.244Z" fill="white"/>
<path d="M122.577 597.665C122.577 597.665 118.462 609.884 124.358 616.071C124.358 616.071 114.494 614.936 107.916 629.696L100.66 628.103C100.66 628.103 97.8687 628.165 102.973 617.603C107.259 608.733 110.405 590.071 110.405 590.071L122.577 597.665Z" fill="#F8A491"/>
<path d="M210.717 589.17C210.717 589.17 211.348 614.623 215.087 622.962C215.087 622.962 204.202 614.175 191.504 618.946C191.504 618.946 197.259 604.925 193.129 583.134C193.129 583.134 207.483 594.853 210.717 589.17Z" fill="#F57A69"/>
<path d="M182.121 633.493C182.121 633.493 183.408 618.587 196.866 616.176C208.449 614.097 217.814 621.842 220.074 632.363C221.204 637.603 183.673 636.071 182.121 633.493Z" fill="white"/>
<path d="M214.779 271.78C214.779 271.78 235.503 456.327 224.617 515.358C224.617 515.358 205.992 523.817 194.883 523.989C194.883 523.989 156.57 541.244 113.924 528.983C113.924 528.983 96.6901 522.015 72.6484 513.39C72.6484 513.39 74.7891 336.645 100.326 281.239C100.326 281.239 157.159 284.504 214.779 271.78Z" fill="#6BBACB"/>
<path d="M213.378 221.525C211.789 215.853 203.799 201.301 203.799 201.301C203.799 201.301 198.763 179.29 193.549 163.139C192.716 159.811 190.169 150.572 186.768 147.342L186.721 147.296L186.237 146.816L185.935 146.587C181.56 142.858 176.393 141.566 174.023 140.957L174.497 142.665C175.622 148.853 179.529 170.4 179.232 171.53C178.883 172.853 179.232 201.316 179.232 201.316L198.633 229.473C198.633 229.473 214.971 227.202 213.378 221.525Z" fill="#F57A69"/>
<path d="M183.212 210.4C183.827 207.577 187.843 182.41 182.603 160.447C181.546 159.275 180.462 158.155 179.541 156.796C178.291 154.941 177.416 152.79 176.619 150.717C177.494 152.983 176.869 151.478 176.254 149.978C175.759 148.743 175.27 147.514 175.613 148.332C175.384 147.837 175.192 147.327 175.035 146.796C174.775 145.384 174.457 143.926 174.41 142.493C174.301 141.993 174.238 141.499 174.192 141.014V140.999L168.749 139.504L109.27 141.598L103.822 141.066C103.822 141.066 89.7593 161.124 96.1135 188.374C102.468 215.618 107.681 221.978 109.27 237.874C110.858 253.764 100.327 281.238 100.327 281.238C100.327 281.238 148.509 296.004 192.061 272.384C192.061 272.384 177.931 234.728 183.212 210.4Z" fill="#9BDDDC"/>
<path d="M168.013 202.905C168.013 202.905 180.805 208.15 189.196 202.676C197.581 197.202 200.289 187.098 192.06 174.671C190.717 172.645 186.409 166.233 182.758 160.598C177.519 152.499 174.118 140.999 174.118 140.999C174.118 140.999 147.873 188.78 168.013 202.905Z" fill="#9BDDDC"/>
<path d="M125.443 157.04C125.443 157.04 95.5267 197.613 128.527 208.998C128.527 208.998 149.615 217.056 154.12 190.483C157.438 170.873 125.443 157.04 125.443 157.04Z" fill="#9BDDDC"/>
<path d="M183.213 200.176C183.213 200.176 218.911 217.952 222.223 259.629C225.822 304.806 175.301 315.634 129.228 285.64C129.228 285.64 109.041 234.009 149.874 203.134C149.874 203.134 160.76 194.499 183.213 200.176Z" fill="#9BDDDC"/>
<path d="M192.059 236.894C192.059 236.894 194.658 240.67 195.803 241.988C195.803 241.988 198.022 244.144 198.616 244.712C199.21 245.28 208.309 244.175 211.98 241.316L212.132 240.285L209.902 234.29L192.059 236.894Z" fill="#6BBACB"/>
<path d="M134.793 258.619H187.71L201.027 262.999L206.48 258.249H209.35L211.98 262.999L211.121 268.78L210.533 272.754C210.533 272.754 208.095 272.072 208.137 270.145C208.168 268.213 206.048 273.207 206.033 275.822C206.017 278.431 202.715 271.338 202.72 270.796C202.73 270.254 197.486 274.572 197.048 273.89C196.6 273.207 197.22 269.806 197.027 269.233C196.824 268.666 184.694 263.463 184.694 263.463H136.043L134.793 258.619Z" fill="#6BBACB"/>
<path d="M188.746 203.598C188.986 203.493 189.225 203.405 189.46 203.275C202.512 195.853 196.507 184.488 196.507 184.488C193.746 195.415 180.84 193.316 170.944 191.207C166.538 190.275 162.73 189.332 160.684 189.54C154.027 190.238 146.699 204.405 128.892 198.243C118.043 194.493 116.595 173.087 116.595 173.087L114.376 176.405C115.616 157.04 107.678 147.098 107.678 147.098C105.861 155.118 107.72 177.613 107.72 177.613C107.72 177.613 109.085 235.895 109.225 245.811C109.366 255.738 100.324 281.238 100.324 281.238C109.408 288.29 130.71 285.4 130.71 285.4L128.137 272.754L133.689 227.54C133.689 227.54 153.845 200.775 164.277 200.775C164.715 200.775 169.194 203.608 175.184 204.822C179.527 203.389 184.215 203.551 188.746 203.598Z" fill="#6BBACB"/>
<path d="M197.068 297.765C179.72 301.895 151.746 293.431 141.766 275.702C136.777 266.827 135.902 256.259 136.558 246.244C137.246 235.791 142.751 225.926 150.214 218.176C160.298 207.702 174.386 202.744 188.746 203.598C186.542 201.749 183.209 200.176 183.209 200.176C160.756 194.499 149.871 203.134 149.871 203.134C109.037 234.009 126.501 289.39 126.501 289.39C159.621 310.952 203.027 307.91 216.595 287.499C212.438 292.619 202.574 296.463 197.068 297.765Z" fill="#6BBACB"/>
<path d="M124.237 98.8369C124.237 98.8369 126.888 121.165 123.857 131.155C123.857 131.155 122.57 138.264 103.82 141.071C103.82 141.071 137.622 172.879 157.883 171.67C178.143 170.462 168.747 139.504 168.747 139.504C168.747 139.504 153.727 136.071 152.211 130.925C150.701 125.78 149.268 111.504 149.268 111.504L124.237 98.8369Z" fill="#F57A69"/>
<path d="M131.001 112.191C131.001 112.191 155.74 126.399 160.412 124.066C160.412 124.066 169.423 113.639 171.324 108.3C173.235 102.962 175.443 84.1337 174.188 75.2431C173.016 66.9931 169.839 58.9358 164.391 54.5451C156.152 47.8993 138.209 42.1493 123.209 56.4253C123.209 56.4253 106.48 72.8524 117.871 95.0608C117.871 95.0608 126.193 100.181 127.214 104.274C128.235 108.363 128.808 109.852 131.001 112.191Z" fill="#F8A491"/>
<path d="M164.602 69.0771C164.602 69.0771 165.508 89.8792 147.763 92.4886C130.019 95.098 147.138 92.4886 147.138 92.4886C147.138 92.4886 133.878 93.9313 132.972 107.515C132.06 121.103 123.44 90.1084 123.664 89.7646C123.899 89.4261 156.305 74.8896 156.659 74.6657C157.013 74.4365 161.94 63.6553 162.196 63.6553C162.456 63.6553 164.602 69.0771 164.602 69.0771Z" fill="#F57A69"/>
<path d="M171.96 94.171C171.96 94.171 173.137 94.3898 173.053 92.77C172.96 91.1502 166.585 91.5617 164.871 95.4367C164.871 95.4367 168.809 92.5044 171.96 94.171Z" fill="#F57A69"/>
<path d="M125.942 93.624C125.942 93.624 123.671 84.9209 118.801 88.7178C115.968 90.9261 118.061 100.015 121.723 103.244C125.379 106.468 128.488 105.223 128.488 105.223C128.488 105.223 129.806 105.759 125.942 93.624Z" fill="#F8A491"/>
<path d="M145.889 91.8737C145.889 91.8737 153.618 91.2175 155.608 96.0456C155.608 96.0456 150.728 91.7123 143.467 95.4362C136.212 99.1654 139.337 92.806 139.337 92.806L145.889 91.8737Z" fill="#F57A69"/>
<path d="M103.819 141.072C103.819 141.072 79.1006 134.108 81.5225 171.389C83.3454 199.301 98.4027 189.822 105.939 180.78C113.47 171.738 110.205 157.301 103.819 141.072Z" fill="#F8A491"/>
<path d="M82.2735 176.249C82.2735 176.249 82.1016 204.65 97.7735 245.811C97.7735 245.811 114.378 243.009 120.003 239.004C120.003 239.004 116.758 238.108 115.617 218.869C114.539 200.702 107.721 177.613 107.721 177.613C107.721 177.613 95.1069 165.207 82.2735 176.249Z" fill="#F8A491"/>
<path d="M189.22 251.04C172.241 249.551 136.803 235.634 120.564 230.197C117.507 229.566 114.486 229.582 111.215 229.613C110.069 229.629 108.871 229.587 107.658 229.551C104.772 229.457 101.793 229.358 99.1419 229.962C96.9648 230.462 94.8867 231.176 92.8555 231.967L96.3398 250.228C99.9805 262.436 186.85 260.301 186.85 260.301C191.918 254.848 189.22 251.04 189.22 251.04Z" fill="#F8A491"/>
<path d="M188.773 252.431L199.945 252.343C201.956 252.9 204.549 253.864 207.633 254.249C210.451 254.593 208.732 254.473 212.299 254.525C212.299 254.525 213.638 257.306 207.633 257.15C205.091 257.088 198.695 256.707 198.435 256.749C198.174 256.791 188.773 252.431 188.773 252.431Z" fill="#F57A69"/>
<path d="M203.481 266.868L204.57 270.009C204.57 270.009 200.955 272.603 200.132 273.832C199.309 275.056 199.82 275.514 200.028 275.587C200.236 275.655 206.507 271.509 206.507 271.509L206.83 267.014L204.434 264.571L203.481 266.868Z" fill="#F8A491"/>
<path d="M204.316 265.228L208.348 268.774L208.988 272.92C208.988 272.92 208.077 275.014 208.764 276.858C208.764 276.858 208.988 277.342 209.577 277.478L211.233 274.379L211.801 267.894L206.832 260.165L204.316 265.228Z" fill="#F8A491"/>
<path d="M205.883 254.671C205.883 254.671 210.799 257.301 212.706 257.796C212.706 257.796 214.044 261.082 215.393 262.733C215.393 262.733 215.289 266.088 215.716 266.895C215.716 266.895 214.862 268.431 214.112 266.353C213.362 264.28 213.565 263.306 213.565 263.306C213.565 263.306 212.466 261.681 211.982 261.062C211.503 260.442 205.148 258.692 205.148 258.692L205.883 254.671Z" fill="#F8A491"/>
<path d="M205.652 256.806C205.652 256.806 210.184 260.826 212.439 261.681C212.439 261.681 213.251 266.66 214.689 268.821C214.689 268.821 214.777 271.675 214.777 273.196C214.777 273.196 213.73 273.951 213.152 272.347C212.246 269.832 212.533 269.394 212.533 269.394C212.533 269.394 210.329 264.863 209.824 264.05C209.314 263.243 204.074 260.978 204.074 260.978L205.652 256.806Z" fill="#F8A491"/>
<path d="M189.072 251.062C189.072 251.062 201.666 253.905 205.885 254.671C205.885 254.671 210.265 263.27 204.025 268.192C204.025 268.192 202.27 266.879 199.249 266.03C196.072 265.14 191.458 265.916 186.713 261.843C183.317 258.937 189.072 251.062 189.072 251.062Z" fill="#F8A491"/>
<path d="M202.095 219.196C202.095 219.196 208.397 210.733 214.938 218.681C224.152 229.848 214.938 238.603 211.053 239.467C207.152 240.332 199.761 235.868 202.095 219.196Z" fill="#F57A69"/>
<path d="M211.584 225.947C210.819 224.723 209.913 223.697 208.902 222.786C207.829 222.317 206.564 221.827 205.064 221.301C205.064 221.301 198.59 219.556 194.512 221.806C191.756 223.322 188.907 224.645 188.907 224.645C188.907 224.645 190.038 226.26 193.756 224.504C193.756 224.504 197.564 224.062 199.001 224.468C199.001 224.468 195.527 227.911 193.105 229.244C190.683 230.572 182.954 232.202 182.954 232.202C182.954 232.202 181.668 232.26 181.845 233.692C182.017 235.124 191.235 234.536 191.235 234.536L196.444 233.041L191.376 236.181C191.376 236.181 187.621 235.848 186.657 236.067C185.694 236.275 185.933 237.312 186.095 237.431L188.767 238.332C188.767 238.332 188.558 239.515 189.152 239.796C189.746 240.072 193.012 240.707 193.012 240.707L194.991 240.207L198.298 239.442L194.496 240.957C194.496 240.957 193.163 241.536 193.116 242.322C193.079 243.119 193.621 243.468 193.621 243.468L199.225 241.931C199.225 241.931 209.517 240.364 212.527 233.598C212.637 230.931 212.944 228.129 211.584 225.947Z" fill="#F8A491"/>
<path d="M172.809 93.4206C172.1 93.5508 171.413 93.6549 170.725 93.3841L170.553 93.306C169.632 93.082 165.611 92.5039 164.871 95.4362C164.871 95.4362 167.647 93.0508 171.741 94.7487C171.741 94.7487 173.283 93.8789 173.678 93.0508C173.423 93.2227 173.142 93.3581 172.809 93.4206Z" fill="#171928"/>
<path d="M166.223 88.6651C166.223 88.6651 172.113 83.7536 175.025 85.6911C175.025 85.6911 174.358 84.1651 173.671 83.7953C172.983 83.4255 168.848 84.1547 166.223 88.6651Z" fill="#171928"/>
<path d="M164.9 111.723C164.9 111.723 165.822 112.243 165.061 112.712C164.306 113.186 160.139 113.962 156.66 110.754C156.66 110.754 160.53 111.556 162.061 111.941C163.598 112.327 163.967 111.676 164.9 111.723Z" fill="#F4737A"/>
<path d="M164.66 110.655C163.681 111.134 162.327 111.171 161.296 111.171C160.509 111.176 159.743 111.067 158.983 110.91C158.259 110.9 157.483 110.858 156.66 110.754C156.66 110.754 161.941 113.338 165.056 111.879L165.098 111.52L165.16 110.713C164.822 110.713 165.035 110.713 164.66 110.655Z" fill="white"/>
<path d="M166.03 110.056L165.993 110.051C164.655 110.816 164.098 110.202 162.572 110.27C161.202 110.327 157.077 110.853 156.66 110.754C162.613 111.952 165.134 111.108 165.134 111.108C166.046 111.066 166.374 110.087 166.03 110.056Z" fill="#F4737A"/>
<path d="M163.695 98.1865C163.695 98.1865 165.628 103.53 166.305 104.884C166.305 104.884 166.362 106.14 165.299 107.515C165.299 107.515 166.727 106.28 167.336 105.463C167.945 104.65 166.919 103.884 166.424 103.108C165.935 102.343 163.753 98.8271 163.695 98.1865Z" fill="#F57A69"/>
<path d="M146.758 93.2852C146.044 93.4936 145.081 93.8217 144.852 93.8998C143.352 94.4415 142.862 94.8477 141.643 94.7852C141.055 94.754 140.487 94.6394 139.945 94.4779C140.935 95.655 142.529 96.0873 142.529 96.0873C151.424 92.0873 155.581 96.0873 155.581 96.0873C154.867 92.8061 149.721 92.7852 146.758 93.2852Z" fill="#171928"/>
<path d="M154.934 88.6861C154.934 88.6861 145.986 82.6861 138.668 86.9621C138.668 86.9621 140.022 84.6548 141.892 84.0923C143.762 83.5194 149.887 82.6705 154.934 88.6861Z" fill="#171928"/>
<path d="M127.173 103.212C127.173 103.863 126.647 104.384 125.996 104.384C125.35 104.384 124.824 103.863 124.824 103.212C124.824 102.566 125.35 102.04 125.996 102.04C126.647 102.04 127.173 102.566 127.173 103.212Z" fill="white"/>
<path d="M188.398 306.973C171.935 358.587 128.773 394.478 128.773 394.478C184.169 394.134 188.398 306.973 188.398 306.973Z" fill="#4FA9BB"/>
<path d="M163.695 60.5925C163.695 60.5925 171.408 88.3217 142.153 92.28C142.153 92.28 134.299 95.3113 133.69 100.207C133.69 100.207 148.143 127.092 127.57 140.957C127.57 140.957 121.794 152.577 136.283 159.155H129.726C129.726 159.155 127.565 162.129 120.002 160.634C112.44 159.134 98.8302 151.494 97.4656 140.561C96.1062 129.619 99.9656 124.4 105.403 121.895C110.851 119.4 92.9344 112.384 106.085 80.8112C106.085 80.8112 103.247 81.1394 102.799 79.78C102.799 79.78 106.309 79.4415 106.544 77.28C106.768 75.1238 115.919 38.9467 158.627 48.5092C158.627 48.5092 165.841 50.4831 163.695 60.5925Z" fill="#21233A"/>
<path d="M164.6 69.0667C164.6 69.0667 184.548 74.4001 173.36 98.1865C173.36 98.1865 187.746 83.7438 179.579 71.4886C179.579 71.4886 182.157 54.3167 160.907 52.1553C160.907 52.1553 156.282 64.9886 164.6 69.0667Z" fill="#21233A"/>
<path d="M221.316 498.52C207.707 500.634 211.035 511.837 211.035 511.837C226.155 506.691 221.316 498.52 221.316 498.52Z" fill="#D2E7F7"/>
<path d="M92.1258 440.858C78.5112 442.978 81.8341 454.181 81.8341 454.181C96.9591 449.035 92.1258 440.858 92.1258 440.858Z" fill="#D2E7F7"/>
<path d="M210.097 373.129C196.488 375.249 199.816 386.457 199.816 386.457C214.936 381.301 210.097 373.129 210.097 373.129Z" fill="#D2E7F7"/>
<path d="M190.904 402.587C187.305 402.587 186.289 405.738 186.289 405.738C189.94 407.587 192.435 408.222 194.143 408.222C197.805 408.222 197.841 405.306 197.841 405.306C194.852 403.28 192.591 402.587 190.904 402.587Z" fill="#D2E7F7"/>
<path d="M187.241 356.946C183.637 356.946 182.621 360.097 182.621 360.097C186.267 361.946 188.767 362.576 190.47 362.576C194.142 362.576 194.173 359.665 194.173 359.665C191.184 357.639 188.928 356.946 187.241 356.946Z" fill="#D2E7F7"/>
<path d="M99.1693 412.457C95.5651 412.457 94.5547 415.613 94.5547 415.613C98.1953 417.462 100.69 418.092 102.393 418.092C106.065 418.092 106.096 415.176 106.096 415.176C103.112 413.15 100.857 412.457 99.1693 412.457Z" fill="#D2E7F7"/>
<path d="M123.074 497.124C119.47 497.124 118.465 500.27 118.465 500.27C122.111 502.124 124.605 502.759 126.309 502.759C129.975 502.759 130.007 499.848 130.007 499.848C127.017 497.812 124.762 497.124 123.074 497.124Z" fill="#D2E7F7"/>
<path d="M198.299 480.832C194.695 480.832 193.68 483.983 193.68 483.983C197.326 485.837 199.82 486.467 201.529 486.467C205.201 486.467 205.232 483.551 205.232 483.551C202.242 481.52 199.987 480.832 198.299 480.832Z" fill="#D2E7F7"/>
<path d="M174.31 456.124C170.701 456.124 169.695 459.275 169.695 459.275C173.336 461.124 175.831 461.754 177.534 461.754C181.206 461.754 181.237 458.838 181.237 458.838C178.253 456.812 175.997 456.124 174.31 456.124Z" fill="#D2E7F7"/>
<path d="M202.919 304.113C199.315 304.113 198.305 307.264 198.305 307.264C201.951 309.113 204.445 309.749 206.154 309.749C209.815 309.749 209.852 306.832 209.852 306.832C206.862 304.801 204.607 304.113 202.919 304.113Z" fill="#D2E7F7"/>
<path d="M121.638 269.598C118.029 269.603 117.023 272.754 117.023 272.754C119.872 274.202 122.018 274.9 123.638 275.134C123.424 273.447 123.237 271.655 123.091 269.754C122.565 269.645 122.081 269.598 121.638 269.598Z" fill="#D2E7F7"/>
<path d="M123.09 269.754C123.236 271.655 123.423 273.447 123.637 275.134C124.085 275.202 124.491 275.228 124.861 275.228C128.533 275.228 128.564 272.316 128.564 272.316C126.366 270.827 124.564 270.056 123.09 269.754Z" fill="#D2E7F7"/>
<path d="M168.533 224.608C164.928 224.608 163.918 227.759 163.918 227.759C167.564 229.608 170.059 230.244 171.762 230.244C175.434 230.244 175.465 227.327 175.465 227.327C172.48 225.301 170.22 224.608 168.533 224.608Z" fill="white"/>
<path d="M180.079 273.577C176.475 273.577 175.465 276.728 175.465 276.728C179.111 278.582 181.605 279.218 183.314 279.218C186.975 279.218 187.012 276.301 187.012 276.301C184.022 274.27 181.767 273.577 180.079 273.577Z" fill="white"/>
<path d="M133.634 180.78C130.03 180.78 129.02 183.926 129.02 183.926C132.665 185.78 135.16 186.41 136.868 186.41C140.535 186.41 140.572 183.494 140.572 183.494C137.582 181.468 135.327 180.78 133.634 180.78Z" fill="white"/>
<path d="M171.264 486.618C157.644 488.738 160.977 499.936 160.977 499.936C176.097 494.795 171.264 486.618 171.264 486.618Z" fill="#D2E7F7"/>
<path d="M117.97 348.259C104.355 350.379 107.688 361.582 107.688 361.582C122.808 356.436 117.97 348.259 117.97 348.259Z" fill="#D2E7F7"/>
<path d="M182.69 175.431C171.773 177.129 174.44 186.123 174.44 186.123C186.575 181.988 182.69 175.431 182.69 175.431Z" fill="white"/>
<path d="M104.301 320.296C93.3741 321.994 96.046 330.983 96.046 330.983C108.187 326.858 104.301 320.296 104.301 320.296Z" fill="#D2E7F7"/>
<path d="M147.582 325.64C136.655 327.343 139.327 336.332 139.327 336.332C151.463 332.197 147.582 325.64 147.582 325.64Z" fill="#D2E7F7"/>
<path d="M153.079 284.228C151.736 284.436 150.6 284.759 149.637 285.155C150.845 286.207 152.132 287.207 153.47 288.144C154.085 285.925 153.079 284.228 153.079 284.228Z" fill="white"/>
<path d="M149.639 285.155C142.774 288.004 144.826 294.926 144.826 294.926C150.785 292.895 152.878 290.28 153.472 288.145C152.134 287.207 150.847 286.207 149.639 285.155Z" fill="#D2E7F7"/>
<path d="M165.389 192.077C158.52 193.145 157.025 197.098 156.863 199.884C158.926 199.254 161.457 198.707 164.452 198.431C167.212 195.166 165.389 192.077 165.389 192.077Z" fill="#D2E7F7"/>
<path d="M164.449 198.431C161.454 198.707 158.923 199.254 156.861 199.884C156.762 201.53 157.131 202.774 157.131 202.774C160.949 201.472 163.178 199.931 164.449 198.431Z" fill="#D2E7F7"/>
<path d="M130.312 378.681C119.39 380.379 122.062 389.373 122.062 389.373C134.197 385.238 130.312 378.681 130.312 378.681Z" fill="#D2E7F7"/>
<path d="M173.668 378.681C162.741 380.379 165.413 389.373 165.413 389.373C177.549 385.238 173.668 378.681 173.668 378.681Z" fill="#D2E7F7"/>
<path d="M108.868 475.551C97.9406 477.259 100.618 486.249 100.618 486.249C112.753 482.113 108.868 475.551 108.868 475.551Z" fill="#D2E7F7"/>
<path d="M148.523 519.098C137.601 520.801 140.268 529.785 140.268 529.785C152.408 525.66 148.523 519.098 148.523 519.098Z" fill="#D2E7F7"/>
<path d="M220.335 419.02C209.413 420.717 212.08 429.712 212.08 429.712C224.221 425.582 220.335 419.02 220.335 419.02Z" fill="#D2E7F7"/>
<path d="M169.929 421.863C159.007 423.566 161.674 432.556 161.674 432.556C173.814 428.426 169.929 421.863 169.929 421.863Z" fill="#D2E7F7"/>
<path d="M130.312 430.895C119.39 432.592 122.062 441.582 122.062 441.582C134.197 437.452 130.312 430.895 130.312 430.895Z" fill="#D2E7F7"/>
<path d="M190.065 508.978C179.148 510.686 181.815 519.675 181.815 519.675C193.955 515.54 190.065 508.978 190.065 508.978Z" fill="#D2E7F7"/>
<path d="M77.7697 498.212C77.1082 498.212 76.6915 498.306 76.6915 498.306C74.603 511.931 86.2801 512.144 86.2801 512.144C86.0092 499.545 80.2124 498.212 77.7697 498.212Z" fill="#D2E7F7"/>
<path d="M140.003 451.243C139.346 451.243 138.93 451.342 138.93 451.342C136.841 464.972 148.518 465.175 148.518 465.175C148.253 452.582 142.451 451.243 140.003 451.243Z" fill="#D2E7F7"/>
<path d="M88.2204 379.483C87.5642 379.483 87.1475 379.582 87.1475 379.582C85.0642 393.213 96.736 393.41 96.736 393.41C96.4652 380.822 90.6683 379.483 88.2204 379.483Z" fill="#D2E7F7"/>
<path d="M108.487 289.39C107.826 289.395 107.414 289.489 107.414 289.489C105.326 303.114 116.998 303.322 116.998 303.322C116.732 290.723 110.93 289.39 108.487 289.39Z" fill="#D2E7F7"/>
<path d="M124.481 209.274C123.819 209.274 123.403 209.373 123.403 209.373C121.642 220.858 129.653 222.811 132.215 223.139C132.45 222.728 132.694 222.311 132.939 221.905C132.314 210.514 126.835 209.274 124.481 209.274Z" fill="#D2E7F7"/>
<path d="M132.939 221.905C132.694 222.312 132.449 222.728 132.215 223.14C132.699 223.202 132.986 223.207 132.986 223.207C132.975 222.759 132.96 222.322 132.939 221.905Z" fill="#D2E7F7"/>
<path d="M164.309 306.926C163.652 306.926 163.236 307.025 163.236 307.025C161.142 320.655 172.814 320.863 172.814 320.863C172.553 308.264 166.751 306.926 164.309 306.926Z" fill="#D2E7F7"/>
<path d="M143.382 352.796C142.726 352.796 142.309 352.895 142.309 352.895C140.22 366.525 151.887 366.733 151.887 366.733C151.627 354.134 145.83 352.796 143.382 352.796Z" fill="#D2E7F7"/>
<path d="M209.046 451.973C208.39 451.973 207.973 452.066 207.973 452.066C205.884 465.691 217.551 465.9 217.551 465.9C217.291 453.306 211.494 451.973 209.046 451.973Z" fill="#D2E7F7"/>
<path d="M139.668 402.587C139.007 402.587 138.595 402.686 138.595 402.686C136.501 416.306 148.178 416.514 148.178 416.514C147.913 403.92 142.111 402.587 139.668 402.587Z" fill="#D2E7F7"/>
<path d="M203.779 327.676C203.123 327.676 202.711 327.77 202.711 327.77C200.623 341.4 212.289 341.608 212.289 341.608C212.024 329.009 206.227 327.676 203.779 327.676Z" fill="#D2E7F7"/>
<path d="M138.518 117.14C138.289 116.572 138.033 116.046 137.768 115.53C136.606 119.098 134.424 122.181 130.768 124.009C124.596 127.103 117.872 125.535 112.033 122.416C109.184 120.884 106.804 118.983 104.851 116.707C106.346 119.572 107.315 121.02 105.403 121.895C99.9656 124.395 96.1062 129.619 97.4656 140.556C98.8302 151.489 112.44 159.134 120.002 160.634C127.565 162.129 129.726 159.15 129.726 159.15H136.283C121.794 152.577 127.57 140.952 127.57 140.952C137.153 134.499 139.137 125.213 138.518 117.14Z" fill="#171928"/>
<path d="M621.332 73.6704C621.332 73.6704 621.775 67.7693 627.738 68.7954C627.738 68.7954 629.822 62.8475 635.113 64.6079C635.113 64.6079 638.285 61.2902 641.754 64.3162C645.217 67.337 642.962 70.0818 642.962 70.0818C642.962 70.0818 646.145 65.8058 651.186 68.9829C651.186 68.9829 658.639 65.3995 662.889 71.5298C662.889 71.5298 674.004 73.9933 674.363 82.712C674.363 82.712 682.697 86.686 678.665 93.8579C678.665 93.8579 693.322 100.879 685.733 110.051C685.733 110.051 687.973 119.67 680.28 122.426C680.28 122.426 686.973 129.769 678.275 135.571C678.275 135.571 676.79 147.525 666.66 144.702C666.66 144.702 664.936 154.061 657.301 154.233C657.301 154.233 652.499 159.712 644.978 157.566C644.978 157.566 636.733 167.868 630.587 158.931C630.587 158.931 623.738 166.728 619.077 157.535C619.077 157.535 598.811 152.019 599.322 139.03C599.322 139.03 590.801 137.9 592.525 130.608C592.525 130.608 583.832 128.035 588.728 118.722C588.728 118.722 591.009 115.259 593.103 115.446C593.103 115.446 586.217 116.707 585.733 109.79C585.733 109.79 581.723 111.118 578.983 105.915C578.983 105.915 578.436 101.285 584.092 100.077C584.092 100.077 581.046 95.3683 586.467 92.5141L610.124 79.4048C610.124 79.4048 611.796 73.6391 616.04 72.587C616.04 72.587 619.217 71.4881 621.332 73.6704Z" fill="#321728"/>
<path d="M599.319 106.869C599.319 106.869 624.73 91.9259 624.35 95.4884C623.975 99.0561 629.413 97.8217 629.413 97.8217C633.35 101.363 638.678 105.436 644.996 100.171C644.788 100.608 646.689 103.181 648.272 103.801C652.038 105.259 656.257 103.619 656.257 103.619C661.022 107.598 667.371 103.801 667.371 103.801C673.949 105.457 676.444 101.78 676.444 101.78C682.98 100.983 683.835 98.7436 683.21 96.8165C686.741 99.7176 690.335 104.483 685.725 110.051C685.725 110.051 687.97 119.671 680.272 122.431C680.272 122.431 686.965 129.77 678.272 135.572C678.272 135.572 676.788 147.525 666.652 144.707C666.652 144.707 664.928 154.061 657.293 154.233C657.293 154.233 652.501 159.718 644.97 157.572C644.97 157.572 636.73 167.874 630.585 158.936C630.585 158.936 623.736 166.728 619.069 157.54C619.069 157.54 598.803 152.025 599.319 139.035C599.319 139.035 595.204 138.488 593.277 135.702C595.428 125.452 599.319 106.869 599.319 106.869Z" fill="#121428"/>
<path d="M608.989 618.645L605.593 619.671C605.593 619.671 590.754 618.874 586.718 633.743C586.718 633.743 584.27 638.738 588.697 638.962C593.114 639.191 617.494 641.118 630.885 635.332C630.885 635.332 633.874 632.983 630.051 629.051C626.234 625.118 608.989 618.645 608.989 618.645Z" fill="#F466BA"/>
<path d="M549.364 476.462L535.561 466.848C535.561 466.848 517.296 495.056 518.088 534.728C518.874 574.395 520.072 597.978 520.072 597.978C520.072 597.978 528.181 608.775 533.978 597.426C538.228 589.077 546.619 543.592 548.181 537.754C549.744 531.915 562.061 498.973 558.145 473.587L549.364 476.462Z" fill="#762D37"/>
<path d="M528.241 283.082C528.241 283.082 497.991 362.577 535.418 462.01C535.418 462.01 535.658 468.02 556.778 463.483C556.778 463.483 584.377 355.405 565.783 314.983C547.174 274.567 528.241 283.082 528.241 283.082Z" fill="#7641A4"/>
<path d="M537.821 457.707C537.821 457.707 533.628 457.687 537.185 476.369C539.258 487.322 552.727 491.244 556.316 489.562C563.571 486.155 560.68 460.614 554.347 456.687C548.024 452.765 537.821 457.707 537.821 457.707Z" fill="#7641A4"/>
<path d="M564.461 338.952C564.461 338.952 529.445 319.4 527.102 285.218C527.102 285.218 581.076 268.582 630.232 287.718C630.232 287.718 603.477 353.791 564.461 338.952Z" fill="#B390CF"/>
<path d="M600.066 287.884C600.066 287.884 569.16 321.483 535.076 307.16C535.076 307.16 531.602 306.931 529.061 295.134C526.514 283.337 600.066 287.884 600.066 287.884Z" fill="#7641A4"/>
<path d="M627.559 288.483L630.225 287.723C630.225 287.723 663.35 361.962 576.012 468.441C576.012 468.441 554.704 471.712 549.095 462.374C549.095 462.374 546.012 431.686 557.59 381.389C569.158 331.098 583.949 288.738 627.559 288.483Z" fill="#B390CF"/>
<path d="M556.247 471.838L552.727 482.931C552.727 482.931 597.805 564.947 608.674 603.947C608.674 603.947 616.607 605.749 621.18 600.364C621.18 600.364 613.409 545.921 609.273 517.942C605.138 489.963 577.039 462.53 577.039 462.53L556.247 471.838Z" fill="#9D4B36"/>
<path d="M607.971 601.264C607.971 601.264 612.091 613.472 606.195 619.67C606.195 619.67 616.07 618.53 622.643 633.29L629.898 631.696C629.898 631.696 632.69 631.759 627.581 621.196C623.299 612.326 620.148 593.665 620.148 593.665L607.971 601.264Z" fill="#9D4B36"/>
<path d="M519.835 592.769C519.835 592.769 519.204 618.217 515.465 626.55C515.465 626.55 526.345 617.774 539.048 622.535C539.048 622.535 533.298 608.514 537.423 586.728C537.423 586.728 523.069 598.451 519.835 592.769Z" fill="#762D37"/>
<path d="M548.431 637.082C548.431 637.082 547.145 622.181 533.686 619.769C522.103 617.691 512.733 625.431 510.478 635.957C509.348 641.197 546.884 639.665 548.431 637.082Z" fill="#F033A3"/>
<path d="M524.392 316.467C520.449 315.285 514.017 305.723 510.184 303.77C512.512 292.025 517.46 290.415 519.454 283.926C527.116 259.046 528.522 229.421 530.871 224.249C533.22 219.077 538.496 195.254 538.496 195.254L546.069 207.009C546.069 207.009 540.902 275.129 540.611 275.629C533.522 288.066 528.262 301.957 524.392 316.467Z" fill="#D3D2D2"/>
<path d="M548.73 172.879C548.73 172.879 548.632 172.744 548.428 172.504C547.257 171.103 542.777 166.379 536.387 167.562C536.387 167.562 539.611 154.905 543.777 150.937C548.314 146.619 554.001 145.202 556.527 144.546" fill="#762D37"/>
<path d="M547.34 213.988C546.725 211.165 542.71 185.999 547.949 164.04C549.007 162.868 550.09 161.749 551.012 160.384C552.257 158.53 553.137 156.389 553.928 154.311C552.345 158.426 555.71 150.098 554.939 151.931C555.168 151.426 555.366 150.915 555.522 150.389C555.777 148.973 556.095 147.525 556.142 146.077C556.251 145.587 556.314 145.098 556.361 144.598L556.366 144.592L561.803 143.098L621.288 145.191L626.73 144.66C626.73 144.66 640.793 164.717 634.439 191.967C628.09 219.212 622.871 225.572 621.288 241.467C619.694 257.358 630.225 284.832 630.225 284.832C630.225 284.832 582.048 299.592 538.496 275.973C538.496 275.973 552.621 238.322 547.34 213.988Z" fill="#BAE7CE"/>
<path d="M562.539 206.499C562.539 206.499 549.747 211.743 541.367 206.27C532.971 200.79 530.263 190.691 538.497 178.264C539.836 176.238 544.143 169.827 547.789 164.186C553.034 156.092 560.06 145.816 560.06 145.816C560.06 145.816 582.674 192.368 562.539 206.499Z" fill="#BAE7CE"/>
<path d="M605.114 160.629C605.114 160.629 635.025 201.212 602.025 212.587C602.025 212.587 580.942 220.645 576.442 194.077C573.114 174.462 605.114 160.629 605.114 160.629Z" fill="#BAE7CE"/>
<path d="M547.342 203.774C547.342 203.774 521.144 221.311 515.582 255.54C508.327 300.274 555.254 319.228 601.327 289.233C601.327 289.233 621.514 237.608 580.686 206.722C580.686 206.722 569.796 198.097 547.342 203.774Z" fill="#BAE7CE"/>
<path d="M539.855 210.046C539.855 210.046 536.673 233.541 522.23 234.358C522.23 234.358 532.908 215.119 539.855 210.046Z" fill="#94DABA"/>
<path d="M595.758 262.218H542.841L529.523 266.593L524.07 261.843H521.211L518.57 266.593L519.435 272.374L520.013 276.353C520.013 276.353 522.456 275.666 522.414 273.739C522.383 271.806 524.503 276.801 524.518 279.41C524.534 282.025 527.841 274.931 527.836 274.39C527.826 273.848 533.065 278.166 533.503 277.483C533.951 276.801 533.326 273.395 533.523 272.827C533.721 272.259 545.857 267.056 545.857 267.056H594.508L595.758 262.218Z" fill="#FBC1A1"/>
<path d="M541.811 207.191C541.566 207.082 541.332 206.983 541.092 206.858C531.009 201.837 533.894 188.827 533.894 188.827C537.868 204.629 560.201 192.66 566.863 193.353C573.519 194.046 583.858 207.999 601.66 201.837C612.509 198.082 613.962 176.671 613.962 176.671L616.175 179.993C619.962 173.181 622.832 162.738 622.832 162.738C621.019 171.671 622.832 181.207 622.832 181.207C622.832 181.207 621.472 239.483 621.332 249.405C621.191 259.327 630.233 284.837 630.233 284.837C621.154 291.884 599.847 288.983 599.847 288.983L602.42 276.348L596.868 231.129C596.868 231.129 576.707 204.363 566.274 204.363C565.842 204.363 561.358 207.202 555.368 208.41C551.024 206.988 546.342 207.145 541.811 207.191Z" fill="#94DABA"/>
<path d="M537.082 292.816C554.431 296.936 578.806 297.024 588.785 279.295C593.78 270.42 594.655 259.858 593.993 249.837C593.306 239.384 587.796 229.519 580.332 221.769C570.243 211.295 556.962 206.675 542.598 207.535C544.796 205.691 547.342 203.774 547.342 203.774C569.796 198.097 580.686 206.722 580.686 206.722C621.514 237.608 601.327 289.233 601.327 289.233C568.212 310.79 534.655 307.061 521.098 286.649C526.134 289.431 531.577 291.504 537.082 292.816Z" fill="#94DABA"/>
<path d="M606.32 102.426C606.32 102.426 603.669 124.759 606.695 134.749C606.695 134.749 607.976 141.858 626.731 144.66C626.731 144.66 596.455 184.41 576.195 183.202C555.924 181.988 561.804 143.098 561.804 143.098C561.804 143.098 576.825 139.671 578.341 134.514C579.856 129.374 581.289 115.092 581.289 115.092L606.32 102.426Z" fill="#762D37"/>
<path d="M561.707 143.399L560.577 143.436L540.613 197.024C540.613 197.024 543.999 197.931 546.462 197.024C548.926 196.113 561.707 143.399 561.707 143.399Z" fill="#94DABA"/>
<path d="M599.549 115.785C599.549 115.785 574.814 129.993 570.132 127.66C570.132 127.66 561.127 117.233 559.221 111.894C557.314 106.556 555.106 87.7224 556.366 78.8422C557.528 70.587 560.715 62.5297 566.158 58.1391C574.398 51.4985 592.34 45.7432 607.34 60.0193C607.34 60.0193 624.07 76.4412 612.679 98.6599C612.679 98.6599 604.361 103.78 603.33 107.863C602.309 111.957 601.741 113.441 599.549 115.785Z" fill="#9D4B36"/>
<path d="M558.593 97.7645C558.593 97.7645 557.415 97.9781 557.509 96.3635C557.593 94.7437 563.968 95.1552 565.681 99.0354C565.681 99.0354 561.749 96.0979 558.593 97.7645Z" fill="#762D37"/>
<path d="M565.681 73.4054C565.681 73.4054 564.775 70.7544 564.332 71.5096C564.332 71.5096 563.066 70.1086 562.306 71.3742C562.306 71.3742 560.421 69.3429 559.504 70.8429C559.504 70.8429 558.066 70.1554 557.629 71.8481C557.629 71.8481 558.191 62.1867 565.681 55.7804C574.947 47.8533 599.561 40.4211 618.462 61.6971C623.9 67.8273 625.889 80.9836 623.098 91.3533C620.301 101.718 611.504 102.088 611.504 102.088L606.462 93.2336C606.462 93.2336 604.421 94.3898 601.848 100.926C601.848 100.926 605.551 87.5565 597.988 81.2752C597.988 81.2752 598.9 79.9888 596.858 79.3846C596.858 79.3846 595.91 75.4471 591.889 75.52C591.889 75.52 590.285 71.5096 585.134 73.1763C585.134 73.1763 584.233 70.6815 580.072 72.645C580.072 72.645 578.337 70.6033 574.624 73.0252C574.624 73.0252 573.952 71.1346 570.014 72.5721C570.014 72.5721 568.353 71.3586 566.238 73.2544L565.681 73.4054Z" fill="#321728"/>
<path d="M604.611 97.2178C604.611 97.2178 606.877 88.5147 611.752 92.3115C614.59 94.5199 612.486 103.608 608.83 106.838C605.168 110.056 602.064 108.817 602.064 108.817C602.064 108.817 600.747 109.348 604.611 97.2178Z" fill="#9D4B36"/>
<path d="M584.664 95.4675C584.664 95.4675 576.93 94.8112 574.945 99.6394C574.945 99.6394 579.826 95.306 587.086 99.0352C594.341 102.759 591.216 96.3998 591.216 96.3998L584.664 95.4675Z" fill="#762D37"/>
<path d="M626.732 144.661C626.732 144.661 651.451 137.702 649.034 174.984C647.206 202.895 628.513 190.629 620.972 181.582C613.445 172.541 620.352 160.9 626.732 144.661Z" fill="#9D4B36"/>
<path d="M644.014 303.384C636.572 308.348 622.54 307.223 614.275 310.327C610.285 311.827 606.233 313.124 602.129 314.27C604.087 270.473 605.723 235.254 605.723 235.254C603.608 218.311 614.421 181.811 614.421 181.811C610.337 145.483 618.358 141.462 618.358 141.462C622.238 141.405 629.452 143.077 632.243 144.145C625.967 148.884 624.785 155.499 623.566 162.29C622.379 168.863 622.004 175.296 623.082 181.983C623.129 182.301 621.707 183.165 621.827 183.395C621.811 183.702 621.863 184.04 622.009 184.4C624.264 190.301 628.275 195.249 632.738 199.66C634.816 201.723 636.9 203.895 639.108 205.91L630.228 237.884C633.587 258.067 642.342 283.671 644.014 303.384Z" fill="white"/>
<path d="M648.275 179.843C648.275 179.843 647.316 208.244 631.645 249.411C631.645 249.411 616.176 246.603 610.551 242.603C610.551 242.603 613.79 241.707 614.931 222.473C616.009 204.296 623.098 179.572 623.098 179.572C623.098 179.572 635.447 168.801 648.275 179.843Z" fill="#9D4B36"/>
<path d="M634.213 253.826L639.562 225.79C639.562 225.79 632.432 226.603 612.213 233.061C597.208 237.858 559.124 253.071 541.333 254.634C541.333 254.634 538.64 258.441 543.702 263.899C543.702 263.899 630.572 266.03 634.213 253.826Z" fill="#9D4B36"/>
<path d="M541.783 256.024L530.606 255.931C528.596 256.493 526.002 257.457 522.924 257.837C520.111 258.191 521.82 258.061 518.252 258.118C518.252 258.118 516.914 260.899 522.924 260.748C525.46 260.681 531.856 260.3 532.117 260.342C532.377 260.379 541.783 256.024 541.783 256.024Z" fill="#762D37"/>
<path d="M527.076 270.462L525.982 273.603C525.982 273.603 529.596 276.197 530.419 277.421C531.242 278.645 530.732 279.108 530.523 279.181C530.315 279.249 524.044 275.098 524.044 275.098L523.727 270.613L526.112 268.16L527.076 270.462Z" fill="#9D4B36"/>
<path d="M526.238 268.821L522.207 272.368L521.566 276.514C521.566 276.514 522.478 278.608 521.785 280.446C521.785 280.446 521.556 280.931 520.978 281.071L519.322 277.972L518.754 271.488L523.728 263.759L526.238 268.821Z" fill="#9D4B36"/>
<path d="M524.669 258.27C524.669 258.27 519.753 260.889 517.852 261.389C517.852 261.389 516.508 264.676 515.159 266.322C515.159 266.322 515.263 269.681 514.836 270.493C514.836 270.493 515.695 272.02 516.44 269.941C517.19 267.868 516.987 266.9 516.987 266.9C516.987 266.9 518.086 265.275 518.565 264.655C519.049 264.035 525.404 262.285 525.404 262.285L524.669 258.27Z" fill="#9D4B36"/>
<path d="M524.893 260.395C524.893 260.395 520.367 264.415 518.112 265.275C518.112 265.275 517.305 270.254 515.867 272.415C515.867 272.415 515.773 275.264 515.773 276.79C515.773 276.79 516.82 277.546 517.398 275.941C518.305 273.426 518.018 272.983 518.018 272.983C518.018 272.983 520.221 268.457 520.732 267.645C521.237 266.832 526.471 264.572 526.471 264.572L524.893 260.395Z" fill="#9D4B36"/>
<path d="M541.48 254.655C541.48 254.655 528.886 257.499 524.668 258.27C524.668 258.27 520.293 266.858 526.527 271.785C526.527 271.785 528.282 270.473 531.303 269.629C534.48 268.733 539.095 269.504 543.839 265.437C547.235 262.53 541.48 254.655 541.48 254.655Z" fill="#9D4B36"/>
<path d="M557.741 97.0094C558.454 97.1396 559.137 97.2542 559.829 96.9782L559.996 96.8949C560.923 96.6761 564.939 96.098 565.678 99.0355C565.678 99.0355 562.908 96.6396 558.814 98.3428C558.814 98.3428 557.267 97.473 556.871 96.6396C557.126 96.8167 557.408 96.9521 557.741 97.0094Z" fill="#121428"/>
<path d="M564.329 92.2543C564.329 92.2543 558.439 87.3532 555.527 89.2855C555.527 89.2855 556.199 87.7543 556.882 87.3845C557.569 87.0199 561.704 87.7438 564.329 92.2543Z" fill="#121428"/>
<path d="M565.657 114.9C565.657 114.9 564.736 115.426 565.496 115.895C566.251 116.368 570.418 117.139 573.902 113.941C573.902 113.941 570.027 114.738 568.501 115.124C566.97 115.509 566.59 114.858 565.657 114.9Z" fill="#762D37"/>
<path d="M565.898 113.832C566.883 114.311 568.232 114.353 569.268 114.358C570.055 114.363 570.815 114.249 571.576 114.092C572.299 114.087 573.076 114.035 573.904 113.941C573.904 113.941 568.617 116.52 565.508 115.061L565.461 114.702L565.398 113.895C565.737 113.889 565.518 113.9 565.898 113.832Z" fill="white"/>
<path d="M564.534 113.233H564.565C565.909 114.004 566.466 113.384 567.987 113.447C569.357 113.509 573.487 114.035 573.904 113.942C567.956 115.134 565.425 114.291 565.425 114.291C564.519 114.244 564.185 113.265 564.534 113.233Z" fill="#762D37"/>
<path d="M566.856 101.78C566.856 101.78 564.923 107.124 564.246 108.478C564.246 108.478 564.194 109.733 565.252 111.108C565.252 111.108 563.824 109.869 563.215 109.056C562.606 108.244 563.632 107.478 564.132 106.702C564.621 105.931 566.798 102.421 566.856 101.78Z" fill="#762D37"/>
<path d="M583.796 96.8734C584.509 97.0818 585.478 97.4099 585.702 97.4932C587.202 98.0349 587.691 98.4359 588.91 98.3734C589.504 98.3422 590.061 98.2328 590.608 98.0661C589.618 99.2432 588.025 99.6807 588.025 99.6807C579.129 95.6807 574.973 99.6807 574.973 99.6807C575.686 96.3995 580.832 96.3682 583.796 96.8734Z" fill="#121428"/>
<path d="M575.621 92.2748C575.621 92.2748 584.559 86.28 591.887 90.5561C591.887 90.5561 590.533 88.2488 588.658 87.6863C586.783 87.1134 580.663 86.2644 575.621 92.2748Z" fill="#121428"/>
<path d="M547.801 120.738L549.613 114.488L555.254 113.676L558.275 116.655C558.275 116.655 557.238 117.113 556.207 116.691C555.171 116.28 554.457 115.483 554.457 115.483L551.202 116.504L550.254 121.9L547.801 120.738Z" fill="#762D37"/>
<path d="M552.861 122.489C553.741 122.879 553.757 116.03 553.757 116.03L559.007 112.848L560.132 112.15C560.132 112.15 560.147 112.041 559.98 111.645C559.809 111.259 556.428 112.249 556.428 112.249L551.783 114.869L549.918 122.358L552.861 122.489Z" fill="#762D37"/>
<path d="M556.124 121.852C557.03 122.191 556.691 115.358 556.691 115.358L561.759 111.899L562.837 111.139C562.837 111.139 562.858 111.03 562.665 110.655C562.478 110.274 559.145 111.436 559.145 111.436L554.65 114.3L553.035 121.899L556.124 121.852Z" fill="#9D4B36"/>
<path d="M556.879 123.342C556.879 123.342 558.645 121.275 559.962 118.999C559.962 118.999 561.707 117.91 562.488 118.118C563.259 118.327 561.587 120.452 561.098 121.691C559.749 125.103 560.452 127.472 560.301 128.311C559.16 134.42 554.207 136.972 554.207 136.972L556.879 123.342Z" fill="#762D37"/>
<path d="M562.665 140.441C565.16 135.493 558.764 125.462 558.764 125.462L560.15 115.697L563.863 116.056L564.358 114.488L558.941 113.973L555.697 121.655L547.785 120.645L552.098 137.306C552.098 137.306 560.171 145.405 562.665 140.441Z" fill="#9D4B36"/>
<path d="M552.097 137.306C551.019 141.243 539.243 166.264 520.633 188.264C508.18 202.978 515.836 232.524 515.836 232.524C516.831 234.144 521.956 233.691 521.956 233.691C528.795 227.587 538.878 210.014 543.378 192.134C549.066 169.545 562.665 140.441 562.665 140.441L560.566 139.728L552.097 137.306Z" fill="#9D4B36"/>
<path d="M606.368 104.4C605.144 105.353 601.159 107.926 602.383 109.624C603.581 111.27 607.503 108.369 608.716 107.415C609.935 106.468 610.399 105.02 609.748 104.186C609.097 103.353 607.586 103.447 606.368 104.4Z" fill="white"/>
<path d="M590.103 72.3056L589.785 72.2483C589.785 72.2483 589.858 72.0452 590.103 72.3056Z" fill="#121428"/>
<path d="M603.926 101.045C603.926 101.045 605.665 91.2798 611.452 93.1028C611.452 93.1028 613.259 95.1965 611.452 99.035C611.452 99.035 608.207 94.6965 603.926 101.045Z" fill="#762D37"/>
<path d="M549.991 455.806C549.991 455.806 545.939 462.525 552.017 481.009C558.095 499.499 575.179 482.775 578.356 470.879C581.054 460.78 581.111 456.712 573.694 451.634C566.272 446.551 549.991 455.806 549.991 455.806Z" fill="#B390CF"/>
<path d="M623.523 72.1758C623.523 72.1758 627.93 72.1758 629.414 78.5143C630.628 83.681 630.555 95.6185 615.586 103.796C615.586 103.796 627.977 91.2591 623.523 72.1758Z" fill="white"/>
<defs>
<linearGradient id="paint0_linear_243_228" x1="356.5" y1="0" x2="356.5" y2="682" gradientUnits="userSpaceOnUse">
<stop offset="0.535953" stop-color="#FDEEBA"/>
<stop offset="1" stop-color="#D9959D"/>
</linearGradient>
</defs>
</svg>
