<svg width="328" height="191" viewBox="0 0 328 191" fill="none" xmlns="http://www.w3.org/2000/svg">
<path d="M65.8991 40.1183C65.8991 35.1017 64.4075 30.1977 61.6129 26.0266C58.8183 21.8554 54.8462 18.6044 50.199 16.6847C45.5517 14.7649 40.438 14.2626 35.5045 15.2413C30.5709 16.22 26.0392 18.6357 22.4824 22.183C18.9255 25.7302 16.5032 30.2497 15.5219 35.1699C14.5406 40.0901 15.0442 45.1901 16.9692 49.8248C18.8941 54.4595 22.154 58.4209 26.3364 61.208C30.5188 63.9951 35.436 65.4827 40.4662 65.4827C47.2086 65.4735 53.6722 62.7982 58.4398 58.0435C63.2075 53.2887 65.8899 46.8425 65.8991 40.1183ZM21.9869 40.1183C21.9869 36.4733 23.0707 32.9101 25.1012 29.8794C27.1317 26.8487 30.0178 24.4866 33.3945 23.0917C36.7711 21.6968 40.4867 21.3318 44.0713 22.0429C47.656 22.754 50.9487 24.5093 53.533 27.0867C56.1174 29.6641 57.8774 32.9479 58.5904 36.5229C59.3034 40.0978 58.9375 43.8034 57.5388 47.1709C56.1402 50.5385 53.7716 53.4168 50.7327 55.4418C47.6938 57.4669 44.121 58.5478 40.4662 58.5478C35.5666 58.5432 30.869 56.6 27.4044 53.1448C23.9399 49.6896 21.9915 45.0047 21.9869 40.1183ZM65.8991 112.935C65.8782 119.049 63.6461 124.951 59.6128 129.556C55.5794 134.162 50.0156 137.161 43.943 138.004V165.05C43.943 165.97 43.5767 166.852 42.9247 167.502C42.2726 168.152 41.3883 168.518 40.4662 168.518C39.5441 168.518 38.6597 168.152 38.0077 167.502C37.3557 166.852 36.9894 165.97 36.9894 165.05V134.78C36.9894 133.86 37.3557 132.978 38.0077 132.328C38.6597 131.677 39.5441 131.312 40.4662 131.312C45.3672 131.312 50.0675 129.37 53.533 125.914C56.9986 122.458 58.9455 117.77 58.9455 112.883C58.9455 107.995 56.9986 103.307 53.533 99.851C50.0675 96.3948 45.3672 94.4532 40.4662 94.4532C39.5441 94.4532 38.6597 94.0878 38.0077 93.4376C37.3557 92.7873 36.9894 91.9053 36.9894 90.9857V79.127C36.9894 78.2074 37.3557 77.3255 38.0077 76.6752C38.6597 76.0249 39.5441 75.6596 40.4662 75.6596C41.3883 75.6596 42.2726 76.0249 42.9247 76.6752C43.5767 77.3255 43.943 78.2074 43.943 79.127V87.7957C50.0186 88.6392 55.5847 91.6413 59.6185 96.2501C63.6522 100.859 65.8824 106.765 65.8991 112.883V112.935Z" fill="url(#paint0_linear_0_3425)"/>
<path d="M96.4174 97.7764L94.9648 87.3489L96.1341 77.5665L99.4717 69.7979L103.599 68.3818L109.279 70.9639L112.838 77.5955L113.923 92.4219L112.791 113.058L109.77 128.537L103.008 130.891L95.976 131.199L96.273 125.789L98.2783 126.15L103.518 123.816L105.986 116.219L106.779 107.303L108.346 95.3493L108.99 82.4011L107.337 76.9184L103.187 73.7799L98.761 78.7265L98.4657 88.1202L99.1096 95.6833L102.694 98.9076L104.408 96.8307L104.762 89.7675L104.118 83.4116L102.329 85.6941L103.1 93.7453L100.971 93.6853L99.7362 83.2578L101.98 78.2272L105.907 79.3454L107.702 85.5045L106.286 102.307L101.65 105.432L98.967 104.354L96.4174 97.7764ZM136.146 100.214L139.403 103.391L135.969 106.734L133.5 104.932L131.112 104.789L127.486 105.665L125.627 108.237L125.258 105.028V131.035H119.334L119.93 99.4639H124.679V102.582L127.574 99.4639L132.628 99.2362L136.146 100.214ZM161.431 108.354L161.649 130.511H157.358L157.163 128.036L154.259 129.091L148.261 131.035L142.279 127.204L140.306 121.516L142.799 113.948L148.386 110.453L152.729 111.116L155.947 115.765L155.451 120.845L153.009 124.269L148.808 124.098L147.249 122.211L147.623 118.535L151.144 117.398L150.592 120.4L151.519 120.739L151.984 115.593L149.867 115.22L146.375 117.639L145.084 122.425L147.834 126.002L152.965 125.928L156.56 123.023L156.457 109.615L155.018 105.223L152.242 103.506L147.498 104.098L143.901 107.132L140.299 103.259L147.069 99.3278L152.913 98.6908L158.908 100.951L161.431 108.354ZM168.716 122.187L169.257 99.3374H173.397V131.036H167.787L167.344 99.3374H168.957L168.716 122.187ZM173.652 90.7868V92.0334L171.494 90.9015L173.652 92.5607V94.3569L171.862 96.1411H169.475L168.043 95.1891L167.089 91.619L169.118 89.6756H171.862L173.652 90.7868ZM200.754 102.673L203.01 107.774V131.033H197.553L198.196 117.976V111.824L196.992 106.273L193.682 104.172L189.469 104.622L182.816 110.091L185.407 108.745V131.032H179.992L180.617 121.401L179.992 99.3315H184.928L185.012 101.955L189.62 99.5198H195.94L200.754 102.673ZM228.021 106.113L229.223 117.443L228.31 126.405L222.555 131.035H217.686L213.385 127.95L212.154 131.035H208.392L209.816 82.2616H213.387L212.767 103.344L214.087 122.777L216.996 124.972L219.248 126.737L225.456 124.64L226.238 118.47L223.808 106.149L218.541 105.945L218.369 116.081L220.925 120.165L221.645 118.454L221.119 112.069L223.303 112.66L224.466 120.606L220.482 124.358L216.831 120.165C216.831 120.165 214.382 110.38 214.248 103.684L221.995 100.962L228.021 106.113ZM252.677 104.873L254.22 112.878L253.394 121.957L249.885 128.049L244.207 131.035L238.529 130.359L233.677 123.39C233.677 123.39 232.851 113.476 232.851 112.878L234.98 101.976C238.551 102.999 244.435 106.952 244.435 106.952L247.189 113.534C247.189 113.534 246.564 119.95 246.314 120.33C246.063 120.712 242.995 122.845 242.995 122.845L239.743 117.635L240.867 112.894L242.244 117.549L244.624 117.227L243.539 110.592L239.365 107.81L236.799 110.486L236.361 119.1L240.243 125.147C240.243 125.147 244.125 125.789 245.126 125.789C246.128 125.789 249.133 120.758 249.133 120.758L250.134 113.801L248.005 106.416L243.539 102.135L237.298 101.116L239.359 99.1388H247.308L252.677 104.873ZM285.298 99.4116L291.271 99.4115L285.966 130.696L282.616 131.035L275.105 115.767L276.178 111.986L272.368 121.098L266.913 131.034L263.243 130.695L255.161 99.1155H259.769L262.443 107.918L260.339 99.321H260.86L266.091 121.473L273.216 103.941L274.612 103.227L282.669 120.082L285.298 99.4116ZM311.122 115.427L312.965 121.511L310.455 127.828L304.236 131.031L299.444 130.62L294.046 128.473L294.249 120.165L300.945 118.823L305.847 120.586L305.809 124.372L303.458 124.638L303.292 123.419L301.072 122.586L299.903 124.581L301.286 126.247L306.25 124.853L307.579 120.641L306.054 117.681L301.125 116.046L296.5 113.363L294.58 109.159L295.047 103.551L298.287 100.159L304.552 99.308L308.326 99.8217L309.9 103.568C309.9 103.568 309.27 106.678 308.98 106.988C308.688 107.298 305.177 108.801 305.177 108.801L302.577 106.825L303.832 104.231L305.901 104.76L305.694 106.084L307.059 105.52L304.554 102.827L301.223 104.818L299.901 107.446L301.024 109.886L306.485 112.169L311.122 115.427Z" fill="url(#paint1_linear_0_3425)"/>
<defs>
<linearGradient id="paint0_linear_0_3425" x1="15.0332" y1="14.7539" x2="65.8991" y2="14.7539" gradientUnits="userSpaceOnUse">
<stop stop-color="#2D388A"/>
<stop offset="1" stop-color="#00AEEF"/>
</linearGradient>
<linearGradient id="paint1_linear_0_3425" x1="94.9648" y1="68.3818" x2="312.965" y2="68.3818" gradientUnits="userSpaceOnUse">
<stop stop-color="#2D388A"/>
<stop offset="1" stop-color="#00AEEF"/>
</linearGradient>
</defs>
</svg>
