<svg width="51" height="154" viewBox="0 0 51 154" fill="none" xmlns="http://www.w3.org/2000/svg">
<path d="M50.8659 25.3644C50.8659 20.3478 49.3743 15.4438 46.5797 11.2727C43.7851 7.10149 39.813 3.85049 35.1658 1.93079C30.5185 0.0109867 25.4048 -0.491314 20.4713 0.487386C15.5377 1.46609 11.006 3.88179 7.44919 7.42909C3.89229 10.9763 1.46999 15.4958 0.488686 20.416C-0.492614 25.3362 0.0109864 30.4362 1.93599 35.0709C3.86089 39.7056 7.12079 43.667 11.3032 46.4541C15.4856 49.2412 20.4028 50.7288 25.433 50.7288C32.1754 50.7196 38.639 48.0443 43.4066 43.2896C48.1743 38.5348 50.8567 32.0886 50.8659 25.3644ZM6.95369 25.3644C6.95369 21.7194 8.03749 18.1562 10.068 15.1255C12.0985 12.0948 14.9846 9.73269 18.3613 8.33779C21.7379 6.94289 25.4535 6.57789 29.0381 7.28899C32.6228 8.00009 35.9155 9.75539 38.4998 12.3328C41.0842 14.9102 42.8442 18.194 43.5572 21.769C44.2702 25.3439 43.9043 29.0495 42.5056 32.417C41.107 35.7846 38.7384 38.6629 35.6995 40.6879C32.6606 42.713 29.0878 43.7939 25.433 43.7939C20.5334 43.7893 15.8358 41.8461 12.3712 38.3909C8.90669 34.9357 6.95829 30.2508 6.95369 25.3644ZM50.8659 98.1811C50.845 104.295 48.6129 110.197 44.5796 114.802C40.5462 119.408 34.9824 122.407 28.9098 123.25V150.296C28.9098 151.216 28.5435 152.098 27.8915 152.748C27.2394 153.398 26.3551 153.764 25.433 153.764C24.5109 153.764 23.6265 153.398 22.9745 152.748C22.3225 152.098 21.9562 151.216 21.9562 150.296V120.026C21.9562 119.106 22.3225 118.224 22.9745 117.574C23.6265 116.923 24.5109 116.558 25.433 116.558C30.334 116.558 35.0343 114.616 38.4998 111.16C41.9654 107.704 43.9123 103.016 43.9123 98.1291C43.9123 93.2411 41.9654 88.5531 38.4998 85.0971C35.0343 81.6409 30.334 79.6993 25.433 79.6993C24.5109 79.6993 23.6265 79.3339 22.9745 78.6837C22.3225 78.0334 21.9562 77.1514 21.9562 76.2318V64.3731C21.9562 63.4535 22.3225 62.5716 22.9745 61.9213C23.6265 61.271 24.5109 60.9057 25.433 60.9057C26.3551 60.9057 27.2394 61.271 27.8915 61.9213C28.5435 62.5716 28.9098 63.4535 28.9098 64.3731V73.0418C34.9854 73.8853 40.5515 76.8874 44.5853 81.4962C48.619 86.1051 50.8492 92.0111 50.8659 98.1291V98.1811Z" fill="url(#paint0_linear_139_5)"/>
<defs>
<linearGradient id="paint0_linear_139_5" x1="-1.35393e-05" y1="-1.21274e-05" x2="50.8659" y2="-1.21274e-05" gradientUnits="userSpaceOnUse">
<stop stop-color="#2D388A"/>
<stop offset="1" stop-color="#00AEEF"/>
</linearGradient>
</defs>
</svg>
